<svg width="16" height="17" viewBox="0 0 16 17" fill="none" xmlns="http://www.w3.org/2000/svg">
<path fill-rule="evenodd" clip-rule="evenodd" d="M3.3335 3.83341C2.96531 3.83341 2.66683 4.13189 2.66683 4.50008V13.8334C2.66683 14.2016 2.96531 14.5001 3.3335 14.5001H12.6668C13.035 14.5001 13.3335 14.2016 13.3335 13.8334V4.50008C13.3335 4.13189 13.035 3.83341 12.6668 3.83341H3.3335ZM1.3335 4.50008C1.3335 3.39551 2.22893 2.50008 3.3335 2.50008H12.6668C13.7714 2.50008 14.6668 3.39551 14.6668 4.50008V13.8334C14.6668 14.938 13.7714 15.8334 12.6668 15.8334H3.3335C2.22893 15.8334 1.3335 14.938 1.3335 13.8334V4.50008Z" fill="#1A317C"/>
<path fill-rule="evenodd" clip-rule="evenodd" d="M10.6668 1.16675C11.035 1.16675 11.3335 1.46522 11.3335 1.83341V4.50008C11.3335 4.86827 11.035 5.16675 10.6668 5.16675C10.2986 5.16675 10.0002 4.86827 10.0002 4.50008V1.83341C10.0002 1.46522 10.2986 1.16675 10.6668 1.16675Z" fill="#1A317C"/>
<path fill-rule="evenodd" clip-rule="evenodd" d="M5.3335 1.16675C5.70169 1.16675 6.00016 1.46522 6.00016 1.83341V4.50008C6.00016 4.86827 5.70169 5.16675 5.3335 5.16675C4.96531 5.16675 4.66683 4.86827 4.66683 4.50008V1.83341C4.66683 1.46522 4.96531 1.16675 5.3335 1.16675Z" fill="#1A317C"/>
<path fill-rule="evenodd" clip-rule="evenodd" d="M1.3335 7.16675C1.3335 6.79856 1.63197 6.50008 2.00016 6.50008H14.0002C14.3684 6.50008 14.6668 6.79856 14.6668 7.16675C14.6668 7.53494 14.3684 7.83341 14.0002 7.83341H2.00016C1.63197 7.83341 1.3335 7.53494 1.3335 7.16675Z" fill="#1A317C"/>
</svg>
