<svg width="12" height="12" viewBox="0 0 12 12" fill="none" xmlns="http://www.w3.org/2000/svg">
<path d="M11.5944 2.36357L7.95844 5.99987L11.5944 9.636C12.1352 10.177 12.1352 11.0534 11.5944 11.5945C11.3241 11.8647 10.9699 11.9999 10.6157 11.9999C10.2611 11.9999 9.90674 11.8649 9.63672 11.5945L6.00001 7.95792L2.36357 11.5944C2.09338 11.8647 1.73906 11.9999 1.38465 11.9999C1.03033 11.9999 0.676256 11.8649 0.405826 11.5944C-0.135 11.0536 -0.135 10.1772 0.405826 9.63597L4.04165 5.99984L0.405619 2.36357C-0.135206 1.82274 -0.135206 0.946135 0.405619 0.405309C0.946342 -0.135103 1.82243 -0.135103 2.36336 0.405309L5.99997 4.04161L9.63631 0.405309C10.1773 -0.135103 11.0535 -0.135103 11.5942 0.405309C12.1352 0.946135 12.1352 1.82274 11.5944 2.36357Z" fill="#3A8646"/>
</svg>
