<svg width="16" height="16" viewBox="0 0 16 16" fill="none" xmlns="http://www.w3.org/2000/svg">
<path fill-rule="evenodd" clip-rule="evenodd" d="M7.17157 1.83832C7.92172 1.08818 8.93913 0.666748 10 0.666748H12C12.3682 0.666748 12.6667 0.965225 12.6667 1.33341V4.00008C12.6667 4.36827 12.3682 4.66675 12 4.66675H10V6.00008H12C12.2053 6.00008 12.3991 6.09466 12.5255 6.25647C12.6518 6.41828 12.6966 6.62928 12.6468 6.82844L11.9801 9.49511C11.9059 9.79188 11.6392 10.0001 11.3333 10.0001H10V14.6667C10 15.0349 9.70152 15.3334 9.33333 15.3334H6.66667C6.29848 15.3334 6 15.0349 6 14.6667V10.0001H4.66667C4.29848 10.0001 4 9.7016 4 9.33342V6.66675C4 6.29856 4.29848 6.00008 4.66667 6.00008H6V4.66675C6 3.60588 6.42143 2.58847 7.17157 1.83832ZM10 2.00008C9.29276 2.00008 8.61448 2.28103 8.11438 2.78113C7.61428 3.28123 7.33333 3.9595 7.33333 4.66675V6.66675C7.33333 7.03494 7.03486 7.33342 6.66667 7.33342H5.33333V8.66675H6.66667C7.03486 8.66675 7.33333 8.96523 7.33333 9.33342V14.0001H8.66667V9.33342C8.66667 8.96523 8.96514 8.66675 9.33333 8.66675H10.8128L11.1461 7.33342H9.33333C8.96514 7.33342 8.66667 7.03494 8.66667 6.66675V4.66675C8.66667 4.31313 8.80714 3.97399 9.05719 3.72394C9.30724 3.47389 9.64638 3.33341 10 3.33341H11.3333V2.00008H10Z" fill="#053145"/>
</svg>
