<svg width="44" height="44" viewBox="0 0 44 44" fill="none" xmlns="http://www.w3.org/2000/svg">
<g clip-path="url(#clip0_684_24608)">
<path d="M35.7264 39.2464H23.3599C22.6485 39.2464 22.0718 39.8232 22.0718 40.5346C22.0718 41.246 22.6485 41.8227 23.3599 41.8227H35.7264C36.4378 41.8227 37.0146 41.246 37.0146 40.5346C37.0146 39.8232 36.4378 39.2464 35.7264 39.2464Z" fill="#1A317C"/>
<path d="M5.72738 34.348L0.384726 39.6175C-0.432834 40.4239 0.138857 41.8227 1.28928 41.8227H9.61946C9.96108 41.8227 10.2887 41.6871 10.5303 41.4455L11.6775 40.2982L5.72738 34.348Z" fill="#1A317C"/>
<path d="M9.1706 24.0508C7.73257 25.5652 7.15487 27.7433 7.66275 29.775C7.88234 30.6533 7.77757 31.5748 7.39722 32.3744L13.6576 38.6348C14.4573 38.2543 15.3786 38.1496 16.2569 38.3692C18.2907 38.8777 20.466 38.298 21.9801 36.8604L9.1706 24.0508Z" fill="#1A317C"/>
<path d="M42.7255 7.74433L39.0144 3.72403C37.2342 1.79538 34.2458 1.65385 32.2905 3.39186L11.0425 22.279L23.7651 35.0016L42.741 14.2467C44.4244 12.4055 44.4201 9.58023 42.7255 7.74433V7.74433Z" fill="#1A317C"/>
</g>
<defs>
<clipPath id="clip0_684_24608">
<rect width="44" height="44" fill="white"/>
</clipPath>
</defs>
</svg>
