<svg width="16" height="16" viewBox="0 0 16 16" fill="none" xmlns="http://www.w3.org/2000/svg">
<path fill-rule="evenodd" clip-rule="evenodd" d="M10.6665 6.00008C9.78245 6.00008 8.9346 6.35127 8.30948 6.97639C7.68436 7.60151 7.33317 8.44936 7.33317 9.33342V13.3334H8.6665V9.33342C8.6665 8.80298 8.87722 8.29427 9.25229 7.9192C9.62736 7.54413 10.1361 7.33342 10.6665 7.33342C11.1969 7.33342 11.7056 7.54413 12.0807 7.9192C12.4558 8.29427 12.6665 8.80298 12.6665 9.33342V13.3334H13.9998V9.33342C13.9998 8.44936 13.6486 7.60151 13.0235 6.97639C12.3984 6.35127 11.5506 6.00008 10.6665 6.00008ZM10.6665 4.66675C9.42883 4.66675 8.24184 5.15841 7.36667 6.03358C6.4915 6.90875 5.99984 8.09574 5.99984 9.33342V14.0001C5.99984 14.3683 6.29831 14.6667 6.6665 14.6667H9.33317C9.70136 14.6667 9.99984 14.3683 9.99984 14.0001V9.33342C9.99984 9.1566 10.0701 8.98704 10.1951 8.86201C10.3201 8.73699 10.4897 8.66675 10.6665 8.66675C10.8433 8.66675 11.0129 8.73699 11.1379 8.86201C11.2629 8.98704 11.3332 9.1566 11.3332 9.33342V14.0001C11.3332 14.3683 11.6316 14.6667 11.9998 14.6667H14.6665C15.0347 14.6667 15.3332 14.3683 15.3332 14.0001V9.33342C15.3332 8.09574 14.8415 6.90875 13.9663 6.03358C13.0912 5.15841 11.9042 4.66675 10.6665 4.66675Z" fill="#053145"/>
<path fill-rule="evenodd" clip-rule="evenodd" d="M0.666504 6.00008C0.666504 5.63189 0.964981 5.33342 1.33317 5.33342H3.99984C4.36803 5.33342 4.6665 5.63189 4.6665 6.00008V14.0001C4.6665 14.3683 4.36803 14.6667 3.99984 14.6667H1.33317C0.964981 14.6667 0.666504 14.3683 0.666504 14.0001V6.00008ZM1.99984 6.66675V13.3334H3.33317V6.66675H1.99984Z" fill="#053145"/>
<path fill-rule="evenodd" clip-rule="evenodd" d="M2.6665 2.00008C2.29831 2.00008 1.99984 2.29856 1.99984 2.66675C1.99984 3.03494 2.29831 3.33341 2.6665 3.33341C3.03469 3.33341 3.33317 3.03494 3.33317 2.66675C3.33317 2.29856 3.03469 2.00008 2.6665 2.00008ZM0.666504 2.66675C0.666504 1.56218 1.56193 0.666748 2.6665 0.666748C3.77107 0.666748 4.6665 1.56218 4.6665 2.66675C4.6665 3.77132 3.77107 4.66675 2.6665 4.66675C1.56193 4.66675 0.666504 3.77132 0.666504 2.66675Z" fill="#053145"/>
</svg>
