<svg width="44" height="44" viewBox="0 0 44 44" fill="none" xmlns="http://www.w3.org/2000/svg">
<path d="M32.9137 38.6101C32.9137 37.5581 32.9137 3.5363 32.9137 2.68862C32.9137 1.97672 32.3366 1.39957 31.6247 1.39957H1.28905C0.577151 1.39957 0 1.97672 0 2.68862V36.032C0 39.586 2.89134 42.4773 6.44525 42.4773H34.2063C33.3952 41.3992 32.9137 40.0599 32.9137 38.6101ZM6.87493 26.1493H10.9999C11.7118 26.1493 12.2889 26.7265 12.2889 27.4384C12.2889 28.1503 11.7118 28.7274 10.9999 28.7274H6.87493C6.16303 28.7274 5.58588 28.1503 5.58588 27.4384C5.58588 26.7265 6.16303 26.1493 6.87493 26.1493ZM5.58588 21.9384C5.58588 21.2265 6.16303 20.6494 6.87493 20.6494H10.9999C11.7118 20.6494 12.2889 21.2265 12.2889 21.9384C12.2889 22.6503 11.7118 23.2275 10.9999 23.2275H6.87493C6.16303 23.2275 5.58588 22.6503 5.58588 21.9384ZM26.1247 36.2899H6.87493C6.16303 36.2899 5.58588 35.7127 5.58588 35.0008C5.58588 34.2889 6.16303 33.7118 6.87493 33.7118H26.1247C26.8366 33.7118 27.4138 34.2889 27.4138 35.0008C27.4138 35.7127 26.8366 36.2899 26.1247 36.2899ZM27.4138 29.5009C27.4138 30.2128 26.8366 30.7899 26.1247 30.7899H16.4998C15.7879 30.7899 15.2108 30.2128 15.2108 29.5009V19.8759C15.2108 19.1641 15.7879 18.5869 16.4998 18.5869H26.1247C26.8366 18.5869 27.4138 19.1641 27.4138 19.8759V29.5009ZM26.1247 15.6651H6.87493C6.16303 15.6651 5.58588 15.0879 5.58588 14.376C5.58588 13.6641 6.16303 13.087 6.87493 13.087H26.1247C26.8366 13.087 27.4138 13.6641 27.4138 14.376C27.4138 15.0879 26.8366 15.6651 26.1247 15.6651ZM26.1247 10.1651H6.87493C6.16303 10.1651 5.58588 9.58796 5.58588 8.87606C5.58588 8.16416 6.16303 7.58701 6.87493 7.58701H26.1247C26.8366 7.58701 27.4138 8.16416 27.4138 8.87606C27.4138 9.58796 26.8366 10.1651 26.1247 10.1651Z" fill="white"/>
<path d="M17.7888 21.165H24.8357V28.2119H17.7888V21.165Z" fill="white"/>
<path d="M42.7106 10.337H35.492C35.492 39.5462 35.4877 38.611 35.4997 38.611C35.6109 40.4106 36.8408 41.9064 38.5023 42.4133C41.16 43.2243 43.8849 41.3018 43.9954 38.5159C44.0021 38.5159 43.9997 39.16 43.9997 11.626C43.9997 10.9141 43.4225 10.337 42.7106 10.337Z" fill="white"/>
</svg>
