<svg width="16" height="14" viewBox="0 0 16 14" fill="none" xmlns="http://www.w3.org/2000/svg">
<path d="M15.935 5.32531L13.0912 0.479622C12.9608 0.257466 12.6756 0.182122 12.4525 0.310935L10.7483 1.2949L9.21313 0.730247C9.15663 0.709466 9.09941 0.692028 9.04175 0.677372C8.60954 0.567497 8.15138 0.629153 7.76044 0.854872L5.22285 2.31997C4.66235 2.64356 4.47032 3.36028 4.79391 3.92078C5.1175 4.48128 5.83422 4.67331 6.39472 4.34972L9.17932 2.742C9.46938 2.57453 9.82675 2.57453 10.1168 2.742C10.1168 2.742 15.727 5.98215 15.745 5.99328L15.8286 5.92447C16.0065 5.77803 16.0516 5.52403 15.935 5.32531Z" fill="white"/>
<path d="M15.2226 6.77206L9.64859 3.55394L6.86399 5.16163C6.53899 5.34928 6.17824 5.44513 5.81274 5.44513C5.62949 5.44513 5.44509 5.42103 5.26337 5.37238C4.71912 5.22653 4.26421 4.8775 3.98252 4.38953C3.70081 3.90163 3.62599 3.33316 3.77184 2.78891C3.89221 2.3396 4.1514 1.9515 4.51262 1.67116L3.36331 1.00759C3.13415 0.875282 2.84093 0.958782 2.71584 1.19197L0.0557429 6.15141C-0.0639133 6.3745 0.0151804 6.65235 0.234462 6.77891L0.478118 6.91956L0.905774 6.17881C1.26056 5.56428 1.92202 5.18253 2.63202 5.18253C2.9804 5.18253 3.32452 5.27488 3.62715 5.44963C3.80124 5.55013 3.95652 5.674 4.08987 5.81691C4.3054 5.73822 4.53562 5.69594 4.77131 5.69594C5.11968 5.69594 5.46377 5.78828 5.76643 5.96303C6.22724 6.22906 6.5569 6.65869 6.69462 7.17269C6.70977 7.22922 6.72193 7.28603 6.73206 7.34297C6.92374 7.38725 7.1089 7.45981 7.28068 7.559C7.74152 7.82503 8.07118 8.25466 8.2089 8.76866C8.22406 8.82519 8.23621 8.882 8.24634 8.93894C8.43802 8.98322 8.62315 9.05575 8.79493 9.15494C9.74624 9.70422 10.0734 10.925 9.52418 11.8763L8.94021 12.8878L10.1919 13.6104C10.6964 13.9017 11.3414 13.7288 11.6326 13.2244C11.9239 12.7199 11.7511 12.0749 11.2466 11.7837L12.0585 12.2524C12.563 12.5437 13.208 12.3708 13.4992 11.8664C13.7905 11.3619 13.6176 10.7169 13.1132 10.4256L13.6545 10.7381C14.1589 11.0294 14.804 10.8565 15.0952 10.3521C15.3865 9.84763 15.2136 9.20256 14.7091 8.91135L14.1679 8.59885C14.6723 8.89009 15.3174 8.71725 15.6086 8.21278C15.8999 7.70834 15.727 7.06331 15.2226 6.77206Z" fill="white"/>
<path d="M8.32615 9.96682C7.82171 9.67557 7.17668 9.84841 6.88543 10.3529L7.19793 9.8116C7.48918 9.30716 7.31634 8.66213 6.8119 8.37088C6.30746 8.07963 5.66243 8.25248 5.37118 8.75691L5.68368 8.21563C5.97493 7.71119 5.80209 7.06616 5.29765 6.77491C4.79321 6.48366 4.14818 6.65651 3.85693 7.16094L3.54443 7.70219C3.83565 7.19776 3.66284 6.55273 3.15837 6.26148C2.65393 5.97023 2.0089 6.14307 1.71765 6.64751L0.58484 8.6096C0.29359 9.11404 0.466434 9.7591 0.970871 10.0503C1.47531 10.3416 2.12037 10.1687 2.41159 9.66426C2.12034 10.1687 2.29318 10.8138 2.79762 11.105C3.30206 11.3962 3.94712 11.2234 4.23834 10.7189C3.94709 11.2234 4.11993 11.8684 4.6244 12.1596C5.12884 12.4509 5.77387 12.278 6.06512 11.7736C5.77387 12.278 5.94671 12.9231 6.45115 13.2143C6.95559 13.5055 7.60065 13.3327 7.89187 12.8282L8.71218 11.4074C9.00346 10.9031 8.83062 10.258 8.32615 9.96682Z" fill="white"/>
</svg>
