<svg
  width="16"
  height="16"
  viewBox="0 0 16 16"
  fill="none"
  xmlns="http://www.w3.org/2000/svg"
>
<g clip-path="url(#clip0_1132_6380)">
<path
      fill-rule="evenodd"
      clip-rule="evenodd"
      d="M3.33301 1.33351C3.33301 0.965316 3.63148 0.66684 3.99967 0.66684H11.9997C12.3679 0.66684 12.6663 0.965316 12.6663 1.33351V6.00017C12.6663 6.36836 12.3679 6.66684 11.9997 6.66684C11.6315 6.66684 11.333 6.36836 11.333 6.00017V2.00017H4.66634V6.00017C4.66634 6.36836 4.36786 6.66684 3.99967 6.66684C3.63148 6.66684 3.33301 6.36836 3.33301 6.00017V1.33351Z"
      fill="#fff"
    />
<path
      fill-rule="evenodd"
      clip-rule="evenodd"
      d="M2.66699 6.66668C2.49018 6.66668 2.32061 6.73691 2.19559 6.86194C2.07056 6.98696 2.00033 7.15653 2.00033 7.33334V10.6667C2.00033 10.8435 2.07056 11.0131 2.19559 11.1381C2.32061 11.2631 2.49018 11.3333 2.66699 11.3333H4.00033C4.36852 11.3333 4.66699 11.6318 4.66699 12C4.66699 12.3682 4.36852 12.6667 4.00033 12.6667H2.66699C2.13656 12.6667 1.62785 12.456 1.25278 12.0809C0.877706 11.7058 0.666992 11.1971 0.666992 10.6667V7.33334C0.666992 6.80291 0.877706 6.2942 1.25278 5.91913C1.62785 5.54406 2.13656 5.33334 2.66699 5.33334H13.3337C13.8641 5.33334 14.3728 5.54406 14.7479 5.91913C15.1229 6.2942 15.3337 6.80291 15.3337 7.33334V10.6667C15.3337 11.1971 15.1229 11.7058 14.7479 12.0809C14.3728 12.456 13.8641 12.6667 13.3337 12.6667H12.0003C11.6321 12.6667 11.3337 12.3682 11.3337 12C11.3337 11.6318 11.6321 11.3333 12.0003 11.3333H13.3337C13.5105 11.3333 13.68 11.2631 13.8051 11.1381C13.9301 11.0131 14.0003 10.8435 14.0003 10.6667V7.33334C14.0003 7.15653 13.9301 6.98696 13.8051 6.86194C13.68 6.73691 13.5105 6.66668 13.3337 6.66668H2.66699Z"
      fill="#fff"
    />
<path
      fill-rule="evenodd"
      clip-rule="evenodd"
      d="M3.33301 9.33351C3.33301 8.96532 3.63148 8.66684 3.99967 8.66684H11.9997C12.3679 8.66684 12.6663 8.96532 12.6663 9.33351V14.6668C12.6663 15.035 12.3679 15.3335 11.9997 15.3335H3.99967C3.63148 15.3335 3.33301 15.035 3.33301 14.6668V9.33351ZM4.66634 10.0002V14.0002H11.333V10.0002H4.66634Z"
      fill="#fff"
    />
</g>
<defs>
<clipPath id="clip0_1132_6380">
<rect width="16" height="16" fill="white" />
</clipPath>
</defs>
</svg>
