<svg width="16" height="16" viewBox="0 0 16 16" fill="none" xmlns="http://www.w3.org/2000/svg">
<path d="M9.5206 10.2323C9.5206 10.5359 9.27372 10.7831 8.9688 10.7831H7.03024C6.72628 10.7831 6.48001 10.5356 6.48001 10.2323V8.3725H0V13.4022C0 14.2976 0.726102 15.024 1.6225 15.024H14.3781C15.273 15.024 16 14.2976 16 13.4022V8.37219H9.5206V10.2323Z" fill="white"/>
<path d="M14.3781 4.52026H1.6225C0.726102 4.52026 0 5.24728 0 6.14242V7.72303H6.48001V7.33966C6.48001 7.036 6.72628 6.78973 7.03024 6.78973H8.9688C9.27368 6.78973 9.5206 7.036 9.5206 7.33966V7.72303H16V6.14242C16 5.24698 15.2729 4.52026 14.3781 4.52026Z" fill="white"/>
<path d="M10.5563 3.85899C10.8851 3.85899 11.1527 3.59132 11.1527 3.2619V2.57239C11.1527 1.69213 10.4366 0.975952 9.55662 0.975952H6.44253C5.56323 0.975952 4.84766 1.69213 4.84766 2.57239V3.2619C4.84766 3.59097 5.11503 3.85895 5.44349 3.85895C5.77256 3.85895 6.04058 3.59128 6.04058 3.26186V2.57235C6.04058 2.34997 6.2211 2.16914 6.44257 2.16914H9.55665C9.77934 2.16914 9.96048 2.34997 9.96048 2.57235V3.26186C9.96048 3.59101 10.2278 3.85899 10.5563 3.85899Z" fill="white"/>
<path d="M7.12891 7.43799C7.12891 7.61695 7.12891 9.95563 7.12891 10.1336C7.29703 10.1336 8.70455 10.1336 8.87111 10.1336C8.87111 9.95559 8.87111 7.61695 8.87111 7.43799C8.70455 7.43799 7.29672 7.43799 7.12891 7.43799Z" fill="white"/>
</svg>
