<svg width="44" height="44" viewBox="0 0 44 44" fill="none" xmlns="http://www.w3.org/2000/svg">
<path d="M43.8055 9.41342C43.5454 8.99027 43.0694 8.75042 42.5739 8.79339L40.3799 8.98451L42.477 4.75699C42.7267 4.25348 42.6281 3.64685 42.2317 3.24835C41.8352 2.84986 41.2292 2.74828 40.7245 2.99544L35.174 5.71373C31.7449 3.90337 27.4606 4.44074 24.5126 7.1262C22.0522 9.36745 20.759 12.8141 21.0001 16.2513C14.5695 15.6068 9.1262 11.926 5.9075 5.97859C5.69394 5.58405 5.29356 5.32598 4.84609 5.29427C4.39775 5.26307 3.96583 5.46176 3.69891 5.82244C1.70258 8.51933 1.5625 12.217 3.12751 15.2592C2.6961 15.1502 2.23702 15.0027 1.72793 14.8326C1.2918 14.6868 0.810976 14.7802 0.460952 15.0786C0.110929 15.377 -0.0573368 15.8368 0.0175148 16.2907C0.63678 20.0451 2.82612 22.9305 6.28459 24.6385C5.83428 24.7953 5.37477 24.9227 4.90753 25.02C4.4433 25.1168 4.06741 25.4564 3.92432 25.9085C3.78123 26.3606 3.89312 26.8547 4.21711 27.2009C6.70766 29.8631 10.3054 31.1734 12.8608 31.8019C9.95524 34.0773 6.81878 34.4581 2.26117 34.3016C1.7336 34.2856 1.24754 34.5828 1.02573 35.061C0.804015 35.5394 0.890038 36.104 1.24436 36.4946C3.14426 38.5888 10.0662 40.9502 17.3427 41.1272C17.6305 41.1342 17.9241 41.1379 18.2238 41.1379C23.3329 41.1379 30.0851 40.0427 34.9317 35.196C38.6001 31.5277 40.8946 27.3047 41.7513 22.6446C42.4433 18.8808 42.006 15.8668 41.7959 14.4183C41.7804 14.3118 41.7639 14.1988 41.7505 14.0999L43.8028 10.7922C44.0645 10.3703 44.0656 9.83658 43.8055 9.41342Z" fill="#1A317C"/>
</svg>
