<svg
  width="16"
  height="16"
  viewBox="0 0 16 16"
  fill="none"
  xmlns="http://www.w3.org/2000/svg"
>
<g clip-path="url(#clip0_74_4203)">
<path
      d="M5.53346 14.6C3.80013 14.6 2.00013 14.1334 0.400127 13.2C0.13346 13.0667 0.000126954 12.7334 0.0667936 12.4667C0.13346 12.2 0.400127 12 0.666794 12C1.80013 12.0667 2.93346 11.8 3.93346 11.3334C1.46679 9.80005 0.800127 7.66672 0.73346 6.00005C0.666794 4.06672 1.33346 2.46672 1.40013 2.40005C1.46679 2.20005 1.66679 2.00005 1.93346 2.00005C2.20013 2.00005 2.40013 2.06672 2.53346 2.26672C3.66679 3.86672 5.40013 4.86672 7.33346 5.00005C7.33346 3.93338 7.80013 2.93338 8.60013 2.20005C10.0001 1.00005 12.0668 1.00005 13.4668 2.20005C14.0001 2.00005 14.5335 1.73338 15.0001 1.40005C15.2001 1.26672 15.5335 1.26672 15.7335 1.40005C15.9335 1.53338 16.0668 1.86672 16.0001 2.13338C15.8001 3.06672 15.3335 3.93338 14.6668 4.66672C14.6668 4.80005 14.6668 4.86672 14.6668 5.00005C14.6668 8.66672 13.0668 11.7334 10.2001 13.3334C8.80013 14.2 7.20013 14.6 5.53346 14.6ZM3.33346 13C5.53346 13.5334 7.73346 13.2667 9.60013 12.2C12.0001 10.8 13.4001 8.13338 13.4001 5.00005C13.4001 4.86672 13.4001 4.73338 13.3335 4.60005C13.2668 4.40005 13.3335 4.13338 13.5335 4.00005C13.6668 3.86672 13.8001 3.66672 13.9335 3.53338C13.8001 3.60005 13.6001 3.66672 13.4668 3.66672C13.2001 3.73338 12.9335 3.66672 12.8001 3.46672C11.9335 2.53338 10.4668 2.40005 9.53346 3.26672C8.93346 3.66672 8.66679 4.33338 8.66679 5.00005V5.66672C8.66679 6.00005 8.40013 6.33338 8.00013 6.33338C5.80013 6.40005 3.73346 5.53338 2.26679 4.00005C1.86679 5.73338 1.73346 9.00005 5.60013 10.6667C5.80013 10.8 6.00013 11 6.00013 11.2667C6.00013 11.5334 5.93346 11.7334 5.73346 11.8667C4.93346 12.4 4.13346 12.8 3.33346 13Z"
      fill="#fff"
    />
</g>
<defs>
<clipPath id="clip0_74_4203">
<rect width="16" height="16" fill="white" />
</clipPath>
</defs>
</svg>
