<svg width="14" height="16" viewBox="0 0 14 16" fill="none" xmlns="http://www.w3.org/2000/svg">
<path d="M2.52872 12.2353H13.117C13.5075 12.2353 13.8228 11.92 13.8228 11.5294V1.17646C13.8228 0.785875 13.5075 0.470581 13.117 0.470581H2.52872C1.2299 0.470581 0.175781 1.5247 0.175781 2.82352V13.1765C0.175781 14.4753 1.2299 15.5294 2.52872 15.5294H13.117C13.5075 15.5294 13.8228 15.2141 13.8228 14.8235C13.8228 14.4329 13.5075 14.1176 13.117 14.1176H2.52872C2.01108 14.1176 1.58755 13.6941 1.58755 13.1765C1.58755 12.6588 2.01108 12.2353 2.52872 12.2353ZM7.49813 9.91058C7.36637 10.0423 7.18284 10.1176 6.99931 10.1176C6.81578 10.1176 6.63225 10.0423 6.50049 9.91058C6.36872 9.77882 6.29343 9.59999 6.29343 9.41176C6.29343 9.22823 6.36872 9.0447 6.50049 8.91293C6.76402 8.6494 7.2346 8.6494 7.49813 8.91293C7.6299 9.0447 7.70519 9.22823 7.70519 9.41176C7.70519 9.59999 7.6299 9.77882 7.49813 9.91058ZM5.63931 3.08235C6.11931 2.68235 6.7546 2.51293 7.37578 2.62117C8.23225 2.77176 8.93343 3.47293 9.08402 4.3294C9.23931 5.22823 8.81578 6.12235 8.02049 6.55999C7.82755 6.66823 7.70519 6.90823 7.70519 7.18117V7.29411C7.70519 7.6847 7.3899 7.99999 6.99931 7.99999C6.60872 7.99999 6.29343 7.6847 6.29343 7.29411V7.18117C6.29343 6.39058 6.69343 5.67999 7.33813 5.32705C7.54519 5.21411 7.75696 4.94588 7.69107 4.57411C7.64402 4.29646 7.40872 4.06117 7.13578 4.01411C6.9146 3.97176 6.70755 4.02823 6.54755 4.1647C6.38755 4.30117 6.29343 4.49882 6.29343 4.70588C6.29343 5.09646 5.97813 5.41176 5.58755 5.41176C5.19696 5.41176 4.88166 5.09646 4.88166 4.70588C4.88166 4.07999 5.15931 3.48705 5.63931 3.08235V3.08235Z" fill="white"/>
</svg>
