<svg width="24" height="24" viewBox="0 0 24 24" fill="none" xmlns="http://www.w3.org/2000/svg">
<g clip-path="url(#clip0_186_2284)">
<path d="M11.8588 11.5609C13.447 11.5609 14.8223 10.9913 15.946 9.86737C17.0698 8.74365 17.6394 7.36871 17.6394 5.78027C17.6394 4.19238 17.0698 2.81726 15.9459 1.69318C14.822 0.569641 13.4468 0 11.8588 0C10.2703 0 8.89539 0.569641 7.77167 1.69336C6.64795 2.81708 6.07812 4.1922 6.07812 5.78027C6.07812 7.36871 6.64795 8.74384 7.77185 9.86755C8.89575 10.9911 10.2709 11.5609 11.8588 11.5609Z" fill="#757575"/>
<path d="M21.9747 18.4547C21.9423 17.9871 21.8768 17.477 21.7803 16.9383C21.6828 16.3956 21.5574 15.8825 21.4073 15.4136C21.2522 14.9289 21.0412 14.4502 20.7805 13.9916C20.5099 13.5155 20.192 13.1009 19.8353 12.7598C19.4623 12.403 19.0057 12.116 18.4776 11.9067C17.9514 11.6985 17.3682 11.5931 16.7443 11.5931C16.4993 11.5931 16.2624 11.6936 15.8048 11.9915C15.5232 12.1752 15.1938 12.3876 14.8261 12.6225C14.5117 12.8228 14.0858 13.0105 13.5598 13.1804C13.0465 13.3465 12.5254 13.4307 12.0111 13.4307C11.4967 13.4307 10.9758 13.3465 10.462 13.1804C9.93649 13.0107 9.51059 12.823 9.19657 12.6227C8.83237 12.39 8.50278 12.1775 8.21696 11.9913C7.75993 11.6934 7.52281 11.5929 7.27781 11.5929C6.65379 11.5929 6.07079 11.6985 5.54472 11.9069C5.01702 12.1158 4.56017 12.4028 4.18682 12.76C3.83032 13.1013 3.51226 13.5157 3.242 13.9916C2.98144 14.4502 2.7705 14.9287 2.61523 15.4137C2.46527 15.8827 2.33984 16.3956 2.24243 16.9383C2.14593 17.4762 2.08038 17.9865 2.04797 18.4553C2.01611 18.9145 2 19.3911 2 19.8725C2 21.1253 2.39825 22.1395 3.18359 22.8875C3.95922 23.6256 4.98552 24.0001 6.23356 24.0001H17.7897C19.0377 24.0001 20.0637 23.6258 20.8395 22.8875C21.625 22.1401 22.0232 21.1257 22.0232 19.8723C22.0231 19.3888 22.0068 18.9118 21.9747 18.4547Z" fill="#757575"/>
</g>
<defs>
<clipPath id="clip0_186_2284">
<rect width="24" height="24" fill="white"/>
</clipPath>
</defs>
</svg>
