<svg width="14" height="16" viewBox="0 0 14 16" fill="none" xmlns="http://www.w3.org/2000/svg">
<path d="M6.90649 7.70728C7.96533 7.70728 8.8822 7.32751 9.63135 6.57825C10.3805 5.8291 10.7603 4.91248 10.7603 3.85352C10.7603 2.79492 10.3805 1.87817 9.63123 1.12878C8.88196 0.379761 7.96521 0 6.90649 0C5.84753 0 4.93091 0.379761 4.18176 1.12891C3.43262 1.87805 3.05273 2.7948 3.05273 3.85352C3.05273 4.91248 3.43262 5.82922 4.18188 6.57837C4.93115 7.32739 5.8479 7.70728 6.90649 7.70728V7.70728Z" fill="white"/>
<path d="M13.6505 12.3032C13.6289 11.9914 13.5852 11.6514 13.5208 11.2922C13.4559 10.9304 13.3723 10.5884 13.2722 10.2757C13.1688 9.95263 13.0281 9.63354 12.8543 9.32775C12.6739 9.01037 12.462 8.734 12.2242 8.50659C11.9755 8.26867 11.6711 8.07739 11.319 7.93787C10.9682 7.79907 10.5794 7.72876 10.1635 7.72876C10.0002 7.72876 9.84225 7.79578 9.5372 7.99438C9.34945 8.11682 9.12985 8.25842 8.88473 8.41504C8.67514 8.54858 8.3912 8.6737 8.0405 8.78698C7.69834 8.8977 7.35092 8.95385 7.00803 8.95385C6.66514 8.95385 6.31785 8.8977 5.97532 8.78698C5.62498 8.67382 5.34104 8.5487 5.13169 8.41516C4.8889 8.26001 4.66917 8.11841 4.47862 7.99426C4.17394 7.79565 4.01585 7.72864 3.85253 7.72864C3.43651 7.72864 3.04784 7.79907 2.69713 7.93799C2.34533 8.07727 2.04076 8.26855 1.79186 8.50671C1.55419 8.73425 1.34216 9.01049 1.16198 9.32775C0.988279 9.63354 0.847654 9.95251 0.744139 10.2759C0.644164 10.5885 0.560546 10.9304 0.495605 11.2922C0.431274 11.6509 0.387573 11.9911 0.365967 12.3036C0.344727 12.6097 0.333984 12.9275 0.333984 13.2484C0.333984 14.0836 0.599486 14.7597 1.12304 15.2584C1.64013 15.7505 2.32433 16.0001 3.15636 16.0001H10.8604C11.6925 16.0001 12.3764 15.7506 12.8936 15.2584C13.4173 14.7601 13.6828 14.0838 13.6828 13.2483C13.6827 12.9259 13.6718 12.6079 13.6505 12.3032V12.3032Z" fill="white"/>
</svg>
